<svg xmlns="http://www.w3.org/2000/svg" width="50" height="38.086" viewBox="0 0 50 38.086"><defs><style>.a{fill:#7e8e95;}</style></defs><g transform="translate(-207 -252.957)"><path class="a" d="M453.465,120H452v8.789h5.45l-2.6-7.788A1.463,1.463,0,0,0,453.465,120Zm0,0" transform="translate(-200.859 144.676)"/><path class="a" d="M367.859,130.254V120H362v19.6a5.835,5.835,0,0,1,10.254,3.835h2.93a1.464,1.464,0,0,0,1.465-1.465V131.719h-7.324A1.464,1.464,0,0,1,367.859,130.254Zm0,0" transform="translate(-119.648 144.676)"/><path class="a" d="M382.859,332.93a2.93,2.93,0,1,1-2.93-2.93A2.929,2.929,0,0,1,382.859,332.93Zm0,0" transform="translate(-133.184 -44.816)"/><path class="a" d="M113.324,330a2.885,2.885,0,0,0-2.2,1.044,2.885,2.885,0,0,0-2.2-1.044,2.93,2.93,0,0,0,0,5.859,2.885,2.885,0,0,0,2.2-1.044,2.885,2.885,0,0,0,2.2,1.044,2.93,2.93,0,0,0,0-5.859Zm0,0" transform="translate(111.352 -44.816)"/><path class="a" d="M1.465,35.156H7.422a5.843,5.843,0,0,1,8.057-5.424,5.843,5.843,0,0,1,8.057,5.424h7.324a1.551,1.551,0,0,0,1.563-1.465V5.859h1.465a1.465,1.465,0,0,0,0-2.93H29.395V1.465a1.465,1.465,0,0,0-2.93,0V2.93H20.605V1.465a1.465,1.465,0,0,0-2.93,0V2.93H11.816V1.465a1.465,1.465,0,0,0-2.93,0V3.788L.429,12.148A1.464,1.464,0,0,0,0,13.184V33.691A1.464,1.464,0,0,0,1.465,35.156Zm22.07-21.973a1.465,1.465,0,0,1,2.93,0V24.9a1.465,1.465,0,0,1-2.93,0Zm-8.789,0a1.465,1.465,0,0,1,2.93,0V24.9a1.465,1.465,0,0,1-2.93,0Zm-8.789,0a1.465,1.465,0,1,1,2.93,0V24.9a1.465,1.465,0,1,1-2.93,0Zm0,0" transform="translate(207 252.957)"/></g></svg>