<svg xmlns="http://www.w3.org/2000/svg" width="39.112" height="37.715" viewBox="0 0 39.112 37.715"><defs><style>.a{fill:#7e8e95;}</style></defs><g transform="translate(-212.444 -381)"><g transform="translate(212.444 381)"><path class="a" d="M477.175,274.286a1.746,1.746,0,0,0,0,3.492h1.048v-3.492Z" transform="translate(-439.111 -254.032)"/><path class="a" d="M137.856,146.286l-6.747,9,6.747,3.066Z" transform="translate(-121.094 -135.81)"/><path class="a" d="M391.683,420.571H386.1a2.1,2.1,0,0,0-2.1,2.1v.7h9.778v-.7A2.1,2.1,0,0,0,391.683,420.571Z" transform="translate(-354.666 -389.142)"/><path class="a" d="M7.34,237.356a4.886,4.886,0,0,1,4.533,4.876h4.889a4.894,4.894,0,0,1,4.889-4.889V234.3L17.2,232.272h-.007L.426,224.653l-.426-.2V239.8l2.151,1.725A4.887,4.887,0,0,1,7.34,237.356Zm-5.863-10.1a.7.7,0,0,1,.933-.309l4.191,2.1a.693.693,0,0,1,.307.936.685.685,0,0,1-.622.384.653.653,0,0,1-.314-.077l-4.191-2.1A.7.7,0,0,1,1.477,227.252Zm0,2.794a.7.7,0,0,1,.933-.309l4.191,2.1a.693.693,0,0,1,.307.936.685.685,0,0,1-.622.384.653.653,0,0,1-.314-.077l-4.191-2.1A.7.7,0,0,1,1.477,230.046Zm.3,3.728a.7.7,0,0,1,.629-1.243l4.191,2.1a.693.693,0,0,1,.307.936.685.685,0,0,1-.622.384.653.653,0,0,1-.314-.077Z" transform="translate(0 -208.009)"/><rect class="a" width="3.492" height="1.397" transform="translate(18.159 6.286)"/><path class="a" d="M358.667,10.191a1.048,1.048,0,1,0-2.1,0v1.746h2.1Z" transform="translate(-329.333 -9.143)"/><path class="a" d="M82.984,448a.7.7,0,1,0,.7.7A.7.7,0,0,0,82.984,448Z" transform="translate(-76 -414.476)"/><path class="a" d="M33.65,67.96V64.7a.7.7,0,0,0-.7-.7H20.38a2.1,2.1,0,0,0-2.1,2.1v9.268L25.6,78.688Z" transform="translate(-16.888 -59.809)"/><path class="a" d="M241.206,289.678l-3.492-1.495v1.851l3.492,1.592Z" transform="translate(-219.555 -266.867)"/><path class="a" d="M241.206,128h-3.492v10.714l3.492,1.495Z" transform="translate(-219.555 -118.92)"/><path class="a" d="M241.207,411.429a3.492,3.492,0,1,0,3.492,3.492A3.492,3.492,0,0,0,241.207,411.429Zm0,5.587a2.1,2.1,0,1,1,2.1-2.1A2.1,2.1,0,0,1,241.207,417.016Z" transform="translate(-219.556 -380.698)"/><path class="a" d="M493.714,477.523h.7a.7.7,0,0,0,.7-.7v-1.4h-1.4Z" transform="translate(-455.999 -439.808)"/><path class="a" d="M331.007,475.429h-1.6a4.936,4.936,0,0,1-1.271,2.1h3a2.1,2.1,0,0,1-.126-.7Z" transform="translate(-303.071 -439.809)"/><rect class="a" width="1.397" height="2.095" transform="translate(32.128 35.62)"/><path class="a" d="M384,476.825a.7.7,0,0,0,.7.7h.7v-2.1H384Z" transform="translate(-354.666 -439.808)"/><path class="a" d="M347.429,310.857v2.794a1.4,1.4,0,0,0,1.4,1.4h6.984v-1.76l-3.038-2.431Z" transform="translate(-320.889 -287.809)"/><path class="a" d="M313.587,89.842v-1.4H306.6a2.793,2.793,0,0,1-2.794-2.794V82.857a1.4,1.4,0,0,1,1.4-1.4h5.343a1.414,1.414,0,0,1,.873.307l2.165,1.732V80.064h-5.3a1.385,1.385,0,0,1-.985-.412l-3.08-3.08a1.385,1.385,0,0,1-.412-.985v-6.7A2.793,2.793,0,0,1,306.6,66.1h6.984V64.7a.7.7,0,0,0-.7-.7h-9.778a1.4,1.4,0,0,0-1.4,1.4V89.346a4.905,4.905,0,0,1,3.492,4.686h1.4v-.7a3.493,3.493,0,0,1,3.492-3.492ZM303.111,79.365a.7.7,0,0,1,.7-.7h.7a.692.692,0,0,1,.7.7.7.7,0,0,1-.7.7h-.7A.7.7,0,0,1,303.111,79.365Z" transform="translate(-278.666 -59.809)"/><path class="a" d="M49.207,411.429a3.492,3.492,0,1,0,3.492,3.492A3.492,3.492,0,0,0,49.207,411.429Zm0,5.587a2.1,2.1,0,1,1,2.1-2.1A2.1,2.1,0,0,1,49.207,417.016Z" transform="translate(-42.223 -380.698)"/><path class="a" d="M137.408,475.429a4.935,4.935,0,0,1-1.271,2.1h7.836a4.934,4.934,0,0,1-1.271-2.1Z" transform="translate(-125.737 -439.809)"/><path class="a" d="M347.429,111.111v6.7l3.08,3.08h5.3V109.714h-6.984A1.4,1.4,0,0,0,347.429,111.111Zm5.6.559a.441.441,0,0,1,.042-.126.525.525,0,0,1,.063-.126l.084-.1c.035-.028.07-.056.112-.084a.39.39,0,0,1,.119-.063.445.445,0,0,1,.126-.042.725.725,0,0,1,.636.189,1.114,1.114,0,0,1,.084.1.53.53,0,0,1,.063.126.446.446,0,0,1,.042.126.948.948,0,0,1,.014.14.734.734,0,0,1-.2.5.7.7,0,0,1-1.194-.5A.941.941,0,0,1,353.03,111.67Zm-3.506-.559h1.4a.7.7,0,0,1,0,1.4h-1.4a.7.7,0,0,1,0-1.4Z" transform="translate(-320.889 -102.031)"/><rect class="a" width="1.397" height="2.095" transform="translate(34.921 35.62)"/><path class="a" d="M274.984,448a.7.7,0,1,0,.7.7A.7.7,0,0,0,274.984,448Z" transform="translate(-253.333 -414.476)"/></g></g></svg>